:version 1.10
:name ASF
:units
  mass 1
  length 1
  angle deg
:documentation
  ASF file generated by Kaydara
:root
  axis xyz
  order  tx ty tz rx ry rz
  position 0 0 0
  orientation 0 0 0
:bonedata
  begin
    id 1
    name SpineDummy
    direction 0.999998 -0.00179978 1.38929e-006
    length 3.60008
    axis 0 0 0 xyz
  end
  begin
    id 2
    name Spine
    direction 0.964365 0.262802 0.0305839
    length 8.13928
    axis 1.33928 -1.75354 15.2838 xyz
    dof rx ry rz
  end
  begin
    id 3
    name Spine1
    direction 0.811168 0.572065 0.12144
    length 7.14954
    axis 2.2224 -6.9761 35.2157 xyz
    dof rx ry rz
  end
  begin
    id 4
    name Neck
    direction 0 0 0
    length 0
    axis 2.2224 -6.9761 35.2157 xyz
    dof rx ry rz
  end
  begin
    id 5
    name HeadDummy
    direction 0.810939 0.572387 0.121455
    length 3.55534
    axis 2.2224 -6.9761 35.2157 xyz
  end
  begin
    id 6
    name Head
    direction 0.998226 -0.000232542 0.0595419
    length 7.35666
    axis -3.03688 -3.41352 -0.0133467 xyz
    dof rx ry rz
  end
  begin
    id 7
    name R_ClavicleDummy
    direction 0.531669 -0.194489 -0.824319
    length 2.49392
    axis 2.2224 -6.9761 35.2157 xyz
  end
  begin
    id 8
    name R_Clavicle
    direction -0.155119 0.0480802 -0.986725
    length 4.485
    axis -54.2764 80.6538 162.779 xyz
    dof rx ry rz
  end
  begin
    id 9
    name R_UpperArm
    direction -0.955567 0.200068 -0.216484
    length 10.1122
    axis -72.9943 12.5026 168.175 xyz
    dof rx ry rz
  end
  begin
    id 10
    name R_Forearm
    direction -0.61433 0.385743 0.688332
    length 9.39148
    axis -117.015 -43.4982 147.875 xyz
    dof rx ry rz
  end
  begin
    id 11
    name R_Hand
    direction -0.699429 0.0170333 0.714499
    length 3.66324
    axis -45.0303 -36.7097 175.478 xyz
    dof rx ry rz
  end
  begin
    id 12
    name L_ClavicleDummy
    direction 0.40287 -0.36502 0.839319
    length 2.49392
    axis 2.2224 -6.9761 35.2157 xyz
  end
  begin
    id 13
    name L_Clavicle
    direction -0.231271 -0.0726419 0.970174
    length 4.485
    axis 18.4357 -75.9711 -162.563 xyz
    dof rx ry rz
  end
  begin
    id 14
    name L_UpperArm
    direction -0.917494 0.144359 0.370629
    length 10.1122
    axis 56.0417 -21.7544 171.058 xyz
    dof rx ry rz
  end
  begin
    id 15
    name L_Forearm
    direction -0.496786 0.615074 -0.612281
    length 9.39148
    axis 89.8094 37.7546 128.927 xyz
    dof rx ry rz
  end
  begin
    id 16
    name L_Hand
    direction -0.409932 0.64962 -0.640274
    length 3.66324
    axis -0.424369 32.133 128.52 xyz
    dof rx ry rz
  end
  begin
    id 17
    name L_ThighDummy
    direction -1.84081e-006 1.87549e-006 1
    length 3.13049
    axis 0 0 0 xyz
  end
  begin
    id 18
    name L_Thigh
    direction -0.947739 0.307978 0.083308
    length 17.9961
    axis 173.219 -4.77873 161.998 xyz
    dof rx ry rz
  end
  begin
    id 19
    name L_Calf
    direction -0.728814 -0.684427 0.0197583
    length 13.3367
    axis 167.331 -1.13214 -136.799 xyz
    dof rx ry rz
  end
  begin
    id 20
    name L_Foot
    direction -0.9028 0.418719 0.0981191
    length 5.8674
    axis 163.436 11.5135 -155.37 xyz
    dof rx ry rz
  end
  begin
    id 21
    name L_Toe0
    direction -0.35341 0.886259 0.299411
    length 4.75286
    axis 169.316 -17.4222 111.74 xyz
    dof rx ry rz
  end
  begin
    id 22
    name R_ThighDummy
    direction 9.32778e-007 -8.82053e-007 -1
    length 3.13049
    axis 0 0 0 xyz
  end
  begin
    id 23
    name R_Thigh
    direction -0.925064 0.37528 -0.0585023
    length 17.9961
    axis -178.698 3.35385 157.919 xyz
    dof rx ry rz
  end
  begin
    id 24
    name R_Calf
    direction -0.68969 -0.718776 -0.0876886
    length 13.3367
    axis -160.504 5.03065 -133.817 xyz
    dof rx ry rz
  end
  begin
    id 25
    name R_Foot
    direction -0.857405 0.418858 -0.299022
    length 5.8674
    axis -161.328 4.38911 -154.413 xyz
    dof rx ry rz
  end
  begin
    id 26
    name R_Toe0
    direction -0.100745 0.952789 -0.286433
    length 4.75286
    axis 171.683 16.6445 96.0359 xyz
    dof rx ry rz
  end
:hierarchy
  begin
    root SpineDummy L_ThighDummy R_ThighDummy
    SpineDummy Spine
    Spine Spine1
    Spine1 Neck
    Neck HeadDummy R_ClavicleDummy L_ClavicleDummy
    HeadDummy Head
    R_ClavicleDummy R_Clavicle
    R_Clavicle R_UpperArm
    R_UpperArm R_Forearm
    R_Forearm R_Hand
    L_ClavicleDummy L_Clavicle
    L_Clavicle L_UpperArm
    L_UpperArm L_Forearm
    L_Forearm L_Hand
    L_ThighDummy L_Thigh
    L_Thigh L_Calf
    L_Calf L_Foot
    L_Foot L_Toe0
    R_ThighDummy R_Thigh
    R_Thigh R_Calf
    R_Calf R_Foot
    R_Foot R_Toe0
  end

:SAMPLES-PER-SECOND 30
:FULLY-SPECIFIED
:DEGREES
158
root  2.71456 25.5422 -16.3132 -71.5846 -15.677 78.5546
Spine  -3.35949 3.67202 14.9522
Spine1  -4.24458 -4.43059 2.82065
Neck  3.97569e-016 0 -2.38542e-015
Head  -1.76235 -2.00414 -11.9408
R_Clavicle  0.0457928 -8.8929 -0.986816
R_UpperArm  26.0856 13.2556 1.34017
R_Forearm  30.071 1.20396 -1.02767
R_Hand  -2.11902 9.17092 -27.0787
L_Clavicle  -0.0347432 -0.800855 0.391437
L_UpperArm  -14.9889 -27.5694 -22.9899
L_Forearm  -4.34065 18.235 22.3528
L_Hand  -0.875124 4.56701 -9.6795
L_Thigh  -10.4897 -17.9438 6.23733
L_Calf  -11.9854 3.25186 -24.191
L_Foot  12.6427 13.5594 27.1121
L_Toe0  -1.66738 0.0937714 -4.70267
R_Thigh  -1.01803 -1.85953 18.7119
R_Calf  0.25118 -10.7114 -35.8373
R_Foot  1.92135 4.87417 -7.2686
R_Toe0  -1.34676 -0.263966 -15.1329
159
root  2.85412 25.6532 -14.9043 -70.6101 -14.8402 79.344
Spine  -3.88787 3.64104 13.2132
Spine1  -5.10537 -2.7523 3.77785
Neck  3.97569e-016 0 -2.38542e-015
Head  -1.86531 -0.863826 -12.6038
R_Clavicle  0.0456545 -1.72566 0.0676527
R_UpperArm  28.4357 18.6229 -8.27337
R_Forearm  23.3748 5.59297 -4.69447
R_Hand  -1.78815 8.77483 -24.793
L_Clavicle  0.00933577 -1.74126 0.256814
L_UpperArm  -18.995 -26.2522 -21.3557
L_Forearm  -4.93882 19.9946 24.8418
L_Hand  -0.749653 3.72832 -9.02585
L_Thigh  -11.4739 -18.0878 9.01668
L_Calf  -11.5944 2.81252 -20.664
L_Foot  13.6749 16.5899 26.0206
L_Toe0  0.38074 0.0284667 -6.11685
R_Thigh  0.127239 -2.00974 11.4208
R_Calf  0.365731 -13.9881 -50.427
R_Foot  1.72383 5.67633 -1.23822
R_Toe0  -1.77632 -0.280861 -17.543
160
root  2.85473 26.0669 -13.6708 -71.8554 -14.5833 79.8351
Spine  -3.17028 3.7113 10.2605
Spine1  -4.8099 -2.80383 4.43158
Neck  3.97569e-016 0 -2.38542e-015
Head  -3.07866 -0.519477 -9.7786
R_Clavicle  0.25768 3.79665 1.43962
R_UpperArm  29.9221 22.1836 -14.7082
R_Forearm  21.5367 5.72707 -4.80725
R_Hand  -1.62963 8.48043 -23.6896
L_Clavicle  0.122102 -0.420088 -0.777157
L_UpperArm  -18.9099 -21.1159 -15.7103
L_Forearm  -3.25023 20.3211 25.316
L_Hand  -0.606109 4.32159 -6.80599
L_Thigh  -13.6364 -17.1052 10.2461
L_Calf  -9.38313 2.23714 -16.1862
L_Foot  12.8058 18.6732 21.6108
L_Toe0  0.513778 0.0341854 -6.22254
R_Thigh  2.69743 -1.98712 -0.666112
R_Calf  0.713694 -15.3856 -58.3841
R_Foot  1.4286 5.53052 2.87329
R_Toe0  -1.78853 -0.272788 -17.3235
161
root  2.77097 26.9035 -12.4129 -74.3516 -13.9367 79.8731
Spine  -1.932 3.74354 6.98279
Spine1  -3.99024 -3.91285 3.28156
Neck  3.97569e-016 0 -2.38542e-015
Head  -4.08354 -0.962565 -3.78272
R_Clavicle  0.528876 5.86278 2.58529
R_UpperArm  28.6827 22.8701 -17.8738
R_Forearm  22.3717 2.6615 -2.24016
R_Hand  -1.32327 7.50725 -21.4448
L_Clavicle  0.121713 3.49093 -2.00314
L_UpperArm  -15.7857 -13.093 -6.2867
L_Forearm  0.880659 19.1098 23.5801
L_Hand  -0.502434 5.12697 -5.2005
L_Thigh  -16.7779 -16.4338 10.5794
L_Calf  -9.04165 1.33962 -9.50573
L_Foot  11.9554 22.7163 15.6789
L_Toe0  0.208442 0.0359963 -5.35561
R_Thigh  4.73597 -3.06791 -11.4757
R_Calf  1.51175 -15.181 -57.1708
R_Foot  1.33419 5.32034 3.29659
R_Toe0  -1.78853 -0.272788 -17.3235
162
root  2.7191 28.2563 -11.0336 -78.008 -12.7447 81.0409
Spine  -0.0342184 6.06107 4.51264
Spine1  -2.53945 -6.44703 0.220285
Neck  3.97569e-016 0 -2.38542e-015
Head  -4.69468 -2.13333 2.50135
R_Clavicle  0.654935 4.7509 3.13207
R_UpperArm  25.7171 21.5634 -17.8853
R_Forearm  22.1969 -1.01963 0.82038
R_Hand  -0.984157 6.28723 -18.4771
L_Clavicle  -0.084053 9.00768 -2.67481
L_UpperArm  -10.5139 -5.15069 4.87103
L_Forearm  4.0316 17.7015 21.6212
L_Hand  -0.463439 4.89644 -4.89067
L_Thigh  -18.0991 -14.9801 11.1042
L_Calf  -6.79695 -0.0204273 0.383905
L_Foot  6.83558 25.3983 1.78504
L_Toe0  -0.417722 0.0523889 -1.20552
R_Thigh  5.31511 -3.90299 -16.3692
R_Calf  2.00846 -13.3679 -47.4277
R_Foot  1.28914 4.70138 1.11961
R_Toe0  -1.78853 -0.272788 -17.3235
163
root  2.74265 29.6438 -9.47625 -83.4672 -11.5967 83.391
Spine  2.95955 10.8103 4.21354
Spine1  0.00106351 -10.8047 -3.02207
Neck  3.97569e-016 0 -2.38542e-015
Head  -5.49905 -3.22259 5.72613
R_Clavicle  0.647555 2.31842 3.19758
R_UpperArm  23.051 20.4864 -15.3399
R_Forearm  21.3303 -3.61797 2.98511
R_Hand  -0.887058 5.82597 -17.5181
L_Clavicle  -0.338433 13.9076 -2.72034
L_UpperArm  -5.18522 0.811998 15.4451
L_Forearm  3.29899 17.25 21.0061
L_Hand  -0.402767 4.99067 -4.17039
L_Thigh  -12.7984 -13.8507 11.6019
L_Calf  -4.26599 -1.40407 10.5036
L_Foot  0.396075 24.5153 -14.0726
L_Toe0  0.276786 -0.125508 3.25493
R_Thigh  3.63689 -3.42998 -16.8636
R_Calf  2.66253 -10.0838 -33.439
R_Foot  1.12483 3.88739 0.0451434
R_Toe0  -1.82898 -0.272776 -17.3467
164
root  2.77825 30.5562 -7.81222 -89.6714 -11.1347 85.5657
Spine  6.24972 14.9388 5.90686
Spine1  2.81691 -14.8096 -4.5518
Neck  3.97569e-016 0 -2.38542e-015
Head  -6.14293 -3.53872 5.5255
R_Clavicle  0.61606 0.14498 3.13308
R_UpperArm  20.6996 20.6719 -12.1339
R_Forearm  21.9459 -5.55089 4.60614
R_Hand  -0.988366 5.95233 -18.4624
L_Clavicle  -0.496756 16.8455 -2.64212
L_UpperArm  -2.90495 5.72672 24.7414
L_Forearm  0.559967 17.618 21.5087
L_Hand  -0.244298 6.6949 -2.0405
L_Thigh  -0.311235 -13.723 12.969
L_Calf  -2.71117 -1.41742 10.4247
L_Foot  -4.00566 14.8606 -23.5015
L_Toe0  2.27063 -0.525268 3.94624
R_Thigh  0.716157 -2.29718 -15.5815
R_Calf  2.37578 -6.27822 -19.9307
R_Foot  0.788566 2.97346 0.838646
R_Toe0  -1.53173 -0.251142 -17.466
165
root  2.77298 30.9918 -6.25507 -94.7453 -11.6638 87.3701
Spine  8.44889 17.2188 7.88863
Spine1  4.6667 -16.3197 -4.61077
Neck  3.97569e-016 0 -2.38542e-015
Head  -5.76335 -3.43457 4.42666
R_Clavicle  0.595731 -1.27238 3.08575
R_UpperArm  18.3026 21.1515 -9.42154
R_Forearm  23.6841 -7.86883 6.57016
R_Hand  -1.02381 5.76471 -18.7544
L_Clavicle  -0.567147 18.0881 -2.78835
L_UpperArm  -3.88643 10.6802 32.9568
L_Forearm  -0.585873 18.4025 22.5922
L_Hand  0.0375571 8.96015 0.510097
L_Thigh  6.64805 -14.1909 14.0469
L_Calf  -3.09148 0.536658 -4.09404
L_Foot  -2.34862 12.1951 -17.9316
L_Toe0  0.656018 0.0762094 -6.74221
R_Thigh  -0.437394 -0.879476 -13.7667
R_Calf  -0.490688 -2.97531 -9.25721
R_Foot  0.130715 0.824067 1.06262
R_Toe0  0.913899 -0.47092 -13.3975
166
root  2.75159 30.8762 -4.70252 -98.7329 -12.5915 89.702
Spine  9.86742 19.1713 9.60246
Spine1  5.69303 -16.0564 -4.69364
Neck  3.97569e-016 0 -2.38542e-015
Head  -4.035 -3.52569 4.01409
R_Clavicle  0.548343 -2.34457 2.86539
R_UpperArm  16.4823 20.8308 -6.50767
R_Forearm  24.5975 -10.5283 8.86149
R_Hand  -0.920383 5.59561 -17.7579
L_Clavicle  -0.59645 18.5476 -2.9455
L_UpperArm  -5.29661 14.5657 40.0896
L_Forearm  0.447558 19.2399 23.7692
L_Hand  0.217474 10.2472 1.79614
L_Thigh  4.94785 -13.6465 13.5018
L_Calf  -8.28553 3.32591 -25.3561
L_Foot  -0.159872 14.3803 -11.3678
L_Toe0  0.482125 0.0348157 -6.15649
R_Thigh  1.69904 1.21928 -11.2262
R_Calf  -4.49237 -1.07221 -3.24527
R_Foot  -0.657438 -1.9164 0.757405
R_Toe0  3.95648 -1.17917 0.418448
167
root  2.79289 30.1667 -2.93307 -101.81 -13.0084 91.972
Spine  10.6623 20.8046 10.5867
Spine1  6.18167 -15.4155 -4.57761
Neck  3.97569e-016 0 -2.38542e-015
Head  -1.40334 -3.72008 3.17329
R_Clavicle  0.472212 -3.92039 2.45667
R_UpperArm  15.95 19.7982 -2.20252
R_Forearm  24.4971 -12.3208 10.4355
R_Hand  -0.841475 6.47499 -17.3105
L_Clavicle  -0.577787 18.3624 -2.57412
L_UpperArm  -5.98476 16.2232 45.6204
L_Forearm  1.6488 19.1185 23.5985
L_Hand  0.177663 10.1153 1.53531
L_Thigh  1.78962 -13.0681 10.3597
L_Calf  -13.4786 5.64212 -46.3506
L_Foot  -0.18511 10.6223 -9.61214
L_Toe0  0.505156 0.0351662 -6.13609
R_Thigh  5.33181 3.92525 -7.24065
R_Calf  -4.30433 -1.10726 -3.22174
R_Foot  -1.54257 -3.39292 3.80377
R_Toe0  2.40194 -0.761342 1.42371
